<svg class="svg-icon" style="width: 1em; height: 1em;vertical-align: middle;fill: #f1f1f1;overflow: hidden;" viewBox="0 0 1024 1024" version="1.1" xmlns="http://www.w3.org/2000/svg"><path d="M128 128h640v640H128V128m682.666667 682.666667h85.333333v85.333333h-85.333333v-85.333333m0-128h85.333333v85.333333h-85.333333v-85.333333m0-128h85.333333v85.333333h-85.333333v-85.333333m0-128h85.333333v85.333333h-85.333333v-85.333333m0-128h85.333333v85.333333h-85.333333V298.666667m-128 512h85.333333v85.333333h-85.333333v-85.333333m-128 0h85.333333v85.333333h-85.333333v-85.333333m-128 0h85.333333v85.333333h-85.333333v-85.333333m-128 0h85.333333v85.333333H298.666667v-85.333333z" fill="" /></svg>