<svg class="svg-icon" style="width: 1em;height: 1em;vertical-align: middle;fill: #f1f1f1;overflow: hidden;" viewBox="0 0 1024 1024" version="1.1" xmlns="http://www.w3.org/2000/svg"><path d="M1002.666667 896H21.333333a21.333333 21.333333 0 0 1-21.333333-21.333333v-725.333334A21.333333 21.333333 0 0 1 21.333333 128h981.333334a21.333333 21.333333 0 0 1 21.333333 21.333333v725.333334a21.333333 21.333333 0 0 1-21.333333 21.333333zM42.666667 853.333333h938.666666V170.666667H42.666667v682.666666z"  /><path d="M65.28 213.333333c-11.776 0-21.546667-9.557333-21.546667-21.333333s9.344-21.333333 21.12-21.333333h0.426667a21.333333 21.333333 0 0 1 0 42.666666zM65.28 298.666667c-11.776 0-21.546667-9.557333-21.546667-21.333334s9.344-21.333333 21.12-21.333333h0.426667a21.333333 21.333333 0 0 1 0 42.666667zM65.28 384c-11.776 0-21.546667-9.557333-21.546667-21.333333s9.344-21.333333 21.12-21.333334h0.426667a21.333333 21.333333 0 0 1 0 42.666667zM65.28 469.333333c-11.776 0-21.546667-9.557333-21.546667-21.333333s9.344-21.333333 21.12-21.333333h0.426667a21.333333 21.333333 0 0 1 0 42.666666zM65.28 554.666667c-11.776 0-21.546667-9.557333-21.546667-21.333334s9.344-21.333333 21.12-21.333333h0.426667a21.333333 21.333333 0 0 1 0 42.666667zM65.28 640c-11.776 0-21.546667-9.557333-21.546667-21.333333s9.344-21.333333 21.12-21.333334h0.426667a21.333333 21.333333 0 0 1 0 42.666667zM65.28 725.333333c-11.776 0-21.546667-9.557333-21.546667-21.333333s9.344-21.333333 21.12-21.333333h0.426667a21.333333 21.333333 0 0 1 0 42.666666zM65.28 810.666667c-11.776 0-21.546667-9.557333-21.546667-21.333334s9.344-21.333333 21.12-21.333333h0.426667a21.333333 21.333333 0 0 1 0 42.666667zM107.946667 256c-11.776 0-21.546667-9.557333-21.546667-21.333333s9.344-21.333333 21.12-21.333334h0.426667a21.333333 21.333333 0 0 1 0 42.666667zM107.946667 341.333333c-11.776 0-21.546667-9.557333-21.546667-21.333333s9.344-21.333333 21.12-21.333333h0.426667a21.333333 21.333333 0 0 1 0 42.666666zM107.946667 426.666667c-11.776 0-21.546667-9.557333-21.546667-21.333334s9.344-21.333333 21.12-21.333333h0.426667a21.333333 21.333333 0 0 1 0 42.666667zM107.946667 512c-11.776 0-21.546667-9.557333-21.546667-21.333333s9.344-21.333333 21.12-21.333334h0.426667a21.333333 21.333333 0 0 1 0 42.666667zM107.946667 597.333333c-11.776 0-21.546667-9.557333-21.546667-21.333333s9.344-21.333333 21.12-21.333333h0.426667a21.333333 21.333333 0 0 1 0 42.666666zM107.946667 682.666667c-11.776 0-21.546667-9.557333-21.546667-21.333334s9.344-21.333333 21.12-21.333333h0.426667a21.333333 21.333333 0 0 1 0 42.666667zM107.946667 768c-11.776 0-21.546667-9.557333-21.546667-21.333333s9.344-21.333333 21.12-21.333334h0.426667a21.333333 21.333333 0 0 1 0 42.666667zM107.946667 853.333333c-11.776 0-21.546667-9.557333-21.546667-21.333333s9.344-21.333333 21.12-21.333333h0.426667a21.333333 21.333333 0 0 1 0 42.666666zM150.613333 213.333333c-11.776 0-21.546667-9.557333-21.546666-21.333333s9.344-21.333333 21.12-21.333333h0.426666a21.333333 21.333333 0 0 1 0 42.666666zM150.613333 298.666667c-11.776 0-21.546667-9.557333-21.546666-21.333334s9.344-21.333333 21.12-21.333333h0.426666a21.333333 21.333333 0 0 1 0 42.666667zM150.613333 384c-11.776 0-21.546667-9.557333-21.546666-21.333333s9.344-21.333333 21.12-21.333334h0.426666a21.333333 21.333333 0 0 1 0 42.666667zM150.613333 469.333333c-11.776 0-21.546667-9.557333-21.546666-21.333333s9.344-21.333333 21.12-21.333333h0.426666a21.333333 21.333333 0 0 1 0 42.666666zM150.613333 554.666667c-11.776 0-21.546667-9.557333-21.546666-21.333334s9.344-21.333333 21.12-21.333333h0.426666a21.333333 21.333333 0 0 1 0 42.666667zM150.613333 640c-11.776 0-21.546667-9.557333-21.546666-21.333333s9.344-21.333333 21.12-21.333334h0.426666a21.333333 21.333333 0 0 1 0 42.666667zM150.613333 725.333333c-11.776 0-21.546667-9.557333-21.546666-21.333333s9.344-21.333333 21.12-21.333333h0.426666a21.333333 21.333333 0 0 1 0 42.666666zM150.613333 810.666667c-11.776 0-21.546667-9.557333-21.546666-21.333334s9.344-21.333333 21.12-21.333333h0.426666a21.333333 21.333333 0 0 1 0 42.666667zM193.28 256c-11.776 0-21.546667-9.557333-21.546667-21.333333s9.344-21.333333 21.12-21.333334h0.426667a21.333333 21.333333 0 0 1 0 42.666667zM193.28 341.333333c-11.776 0-21.546667-9.557333-21.546667-21.333333s9.344-21.333333 21.12-21.333333h0.426667a21.333333 21.333333 0 0 1 0 42.666666zM193.28 426.666667c-11.776 0-21.546667-9.557333-21.546667-21.333334s9.344-21.333333 21.12-21.333333h0.426667a21.333333 21.333333 0 0 1 0 42.666667zM193.28 512c-11.776 0-21.546667-9.557333-21.546667-21.333333s9.344-21.333333 21.12-21.333334h0.426667a21.333333 21.333333 0 0 1 0 42.666667zM193.28 597.333333c-11.776 0-21.546667-9.557333-21.546667-21.333333s9.344-21.333333 21.12-21.333333h0.426667a21.333333 21.333333 0 0 1 0 42.666666zM193.28 682.666667c-11.776 0-21.546667-9.557333-21.546667-21.333334s9.344-21.333333 21.12-21.333333h0.426667a21.333333 21.333333 0 0 1 0 42.666667zM193.28 768c-11.776 0-21.546667-9.557333-21.546667-21.333333s9.344-21.333333 21.12-21.333334h0.426667a21.333333 21.333333 0 0 1 0 42.666667zM193.28 853.333333c-11.776 0-21.546667-9.557333-21.546667-21.333333s9.344-21.333333 21.12-21.333333h0.426667a21.333333 21.333333 0 0 1 0 42.666666zM235.946667 213.333333c-11.776 0-21.546667-9.557333-21.546667-21.333333s9.344-21.333333 21.12-21.333333h0.426667a21.333333 21.333333 0 0 1 0 42.666666zM235.946667 298.666667c-11.776 0-21.546667-9.557333-21.546667-21.333334s9.344-21.333333 21.12-21.333333h0.426667a21.333333 21.333333 0 0 1 0 42.666667zM235.946667 384c-11.776 0-21.546667-9.557333-21.546667-21.333333s9.344-21.333333 21.12-21.333334h0.426667a21.333333 21.333333 0 0 1 0 42.666667zM235.946667 469.333333c-11.776 0-21.546667-9.557333-21.546667-21.333333s9.344-21.333333 21.12-21.333333h0.426667a21.333333 21.333333 0 0 1 0 42.666666zM235.946667 554.666667c-11.776 0-21.546667-9.557333-21.546667-21.333334s9.344-21.333333 21.12-21.333333h0.426667a21.333333 21.333333 0 0 1 0 42.666667zM235.946667 640c-11.776 0-21.546667-9.557333-21.546667-21.333333s9.344-21.333333 21.12-21.333334h0.426667a21.333333 21.333333 0 0 1 0 42.666667zM235.946667 725.333333c-11.776 0-21.546667-9.557333-21.546667-21.333333s9.344-21.333333 21.12-21.333333h0.426667a21.333333 21.333333 0 0 1 0 42.666666zM235.946667 810.666667c-11.776 0-21.546667-9.557333-21.546667-21.333334s9.344-21.333333 21.12-21.333333h0.426667a21.333333 21.333333 0 0 1 0 42.666667zM321.28 256c-11.776 0-21.546667-9.557333-21.546667-21.333333s9.344-21.333333 21.12-21.333334h0.426667a21.333333 21.333333 0 0 1 0 42.666667zM321.28 426.666667c-11.776 0-21.546667-9.557333-21.546667-21.333334s9.344-21.333333 21.12-21.333333h0.426667a21.333333 21.333333 0 0 1 0 42.666667zM321.28 597.333333c-11.776 0-21.546667-9.557333-21.546667-21.333333s9.344-21.333333 21.12-21.333333h0.426667a21.333333 21.333333 0 0 1 0 42.666666zM321.28 768c-11.776 0-21.546667-9.557333-21.546667-21.333333s9.344-21.333333 21.12-21.333334h0.426667a21.333333 21.333333 0 0 1 0 42.666667zM577.28 256c-11.776 0-21.546667-9.557333-21.546667-21.333333s9.344-21.333333 21.12-21.333334h0.426667a21.333333 21.333333 0 0 1 0 42.666667zM705.28 298.666667c-11.776 0-21.546667-9.557333-21.546667-21.333334s9.344-21.333333 21.12-21.333333h0.426667a21.333333 21.333333 0 0 1 0 42.666667zM705.28 469.333333c-11.776 0-21.546667-9.557333-21.546667-21.333333s9.344-21.333333 21.12-21.333333h0.426667a21.333333 21.333333 0 0 1 0 42.666666zM705.28 640c-11.776 0-21.546667-9.557333-21.546667-21.333333s9.344-21.333333 21.12-21.333334h0.426667a21.333333 21.333333 0 0 1 0 42.666667zM705.28 810.666667c-11.776 0-21.546667-9.557333-21.546667-21.333334s9.344-21.333333 21.12-21.333333h0.426667a21.333333 21.333333 0 0 1 0 42.666667zM833.28 256c-11.776 0-21.546667-9.557333-21.546667-21.333333s9.344-21.333333 21.12-21.333334h0.426667a21.333333 21.333333 0 0 1 0 42.666667zM833.28 426.666667c-11.776 0-21.546667-9.557333-21.546667-21.333334s9.344-21.333333 21.12-21.333333h0.426667a21.333333 21.333333 0 0 1 0 42.666667zM833.28 597.333333c-11.776 0-21.546667-9.557333-21.546667-21.333333s9.344-21.333333 21.12-21.333333h0.426667a21.333333 21.333333 0 0 1 0 42.666666zM833.28 768c-11.776 0-21.546667-9.557333-21.546667-21.333333s9.344-21.333333 21.12-21.333334h0.426667a21.333333 21.333333 0 0 1 0 42.666667zM577.28 384c-11.776 0-21.546667-9.557333-21.546667-21.333333s9.344-21.333333 21.12-21.333334h0.426667a21.333333 21.333333 0 0 1 0 42.666667zM577.28 512c-11.776 0-21.546667-9.557333-21.546667-21.333333s9.344-21.333333 21.12-21.333334h0.426667a21.333333 21.333333 0 0 1 0 42.666667zM577.28 640c-11.776 0-21.546667-9.557333-21.546667-21.333333s9.344-21.333333 21.12-21.333334h0.426667a21.333333 21.333333 0 0 1 0 42.666667zM577.28 768c-11.776 0-21.546667-9.557333-21.546667-21.333333s9.344-21.333333 21.12-21.333334h0.426667a21.333333 21.333333 0 0 1 0 42.666667zM491.946667 298.666667c-11.776 0-21.546667-9.557333-21.546667-21.333334s9.344-21.333333 21.12-21.333333h0.426667a21.333333 21.333333 0 0 1 0 42.666667zM491.946667 426.666667c-11.776 0-21.546667-9.557333-21.546667-21.333334s9.344-21.333333 21.12-21.333333h0.426667a21.333333 21.333333 0 0 1 0 42.666667zM491.946667 554.666667c-11.776 0-21.546667-9.557333-21.546667-21.333334s9.344-21.333333 21.12-21.333333h0.426667a21.333333 21.333333 0 0 1 0 42.666667zM491.946667 682.666667c-11.776 0-21.546667-9.557333-21.546667-21.333334s9.344-21.333333 21.12-21.333333h0.426667a21.333333 21.333333 0 0 1 0 42.666667zM491.946667 810.666667c-11.776 0-21.546667-9.557333-21.546667-21.333334s9.344-21.333333 21.12-21.333333h0.426667a21.333333 21.333333 0 0 1 0 42.666667zM406.613333 213.333333c-11.776 0-21.546667-9.557333-21.546666-21.333333s9.344-21.333333 21.12-21.333333h0.426666a21.333333 21.333333 0 0 1 0 42.666666zM406.613333 341.333333c-11.776 0-21.546667-9.557333-21.546666-21.333333s9.344-21.333333 21.12-21.333333h0.426666a21.333333 21.333333 0 0 1 0 42.666666zM406.613333 469.333333c-11.776 0-21.546667-9.557333-21.546666-21.333333s9.344-21.333333 21.12-21.333333h0.426666a21.333333 21.333333 0 0 1 0 42.666666zM406.613333 597.333333c-11.776 0-21.546667-9.557333-21.546666-21.333333s9.344-21.333333 21.12-21.333333h0.426666a21.333333 21.333333 0 0 1 0 42.666666zM406.613333 725.333333c-11.776 0-21.546667-9.557333-21.546666-21.333333s9.344-21.333333 21.12-21.333333h0.426666a21.333333 21.333333 0 0 1 0 42.666666zM406.613333 853.333333c-11.776 0-21.546667-9.557333-21.546666-21.333333s9.344-21.333333 21.12-21.333333h0.426666a21.333333 21.333333 0 0 1 0 42.666666z"  /></svg>